PathFileType	4	(X/Y/Z)	/Users/itak/Documents/Research/Walk-IL/dataset/trc/00443_00167.trc
DataRate	CameraRate	NumFrames	NumMarkers	Units	OrigDataRate	OrigDataStartFrame	OrigNumFrames
100.000000	100.000000	4	54	mm	100.000000	429	491
Frame#	Time	RPSI			LPSI			L3			STRN			T10			C7			CLAV			RBAK			LBAK			LSHO			LUPA			LAEL			LAOL			LWTS			LWPS			LFRA			LIFD			LHPS			RSHO			RUPA			RAEL			RAOL			RWTS			RWPS			RFRA			RIFD			RHTS			RHPS			RBHD			LFHD			RFHD			LBHD			LHIP			RHIP			RASI			LASI			LKNE			LTHI			LANK			LTIP			LTOE			LMT1			LMT5			LHEE			RKNE			RTHI			RANK			RTIP			RTOE			RMT1			RMT5			RHEE			LHTS			*53			
		X1	Y1	Z1	X2	Y2	Z2	X3	Y3	Z3	X4	Y4	Z4	X5	Y5	Z5	X6	Y6	Z6	X7	Y7	Z7	X8	Y8	Z8	X9	Y9	Z9	X10	Y10	Z10	X11	Y11	Z11	X12	Y12	Z12	X13	Y13	Z13	X14	Y14	Z14	X15	Y15	Z15	X16	Y16	Z16	X17	Y17	Z17	X18	Y18	Z18	X19	Y19	Z19	X20	Y20	Z20	X21	Y21	Z21	X22	Y22	Z22	X23	Y23	Z23	X24	Y24	Z24	X25	Y25	Z25	X26	Y26	Z26	X27	Y27	Z27	X28	Y28	Z28	X29	Y29	Z29	X30	Y30	Z30	X31	Y31	Z31	X32	Y32	Z32	X33	Y33	Z33	X34	Y34	Z34	X35	Y35	Z35	X36	Y36	Z36	X37	Y37	Z37	X38	Y38	Z38	X39	Y39	Z39	X40	Y40	Z40	X41	Y41	Z41	X42	Y42	Z42	X43	Y43	Z43	X44	Y44	Z44	X45	Y45	Z45	X46	Y46	Z46	X47	Y47	Z47	X48	Y48	Z48	X49	Y49	Z49	X50	Y50	Z50	X51	Y51	Z51	X52	Y52	Z52	X53	Y53	Z53	X54	Y54	Z54	

430	4.29	1115.151977539062	949.4082641601562	1034.355712890625	1210.89208984375	950.316162109375	928.2239379882812	1166.147216796875	1052.45849609375	990.5234985351562	1365.428588867188	1253.092407226562	1165.608642578125	1159.322998046875	1174.798828125	968.4617309570312	1191.199829101562	1445.240600585938	1019.675048828125	1335.626586914062	1366.09326171875	1139.432983398438	1085.56640625	1321.403686523438	1041.673217773438	1240.763793945312	1400.013427734375	924.023681640625	1364.926513671875	1427.413452148438	946.703369140625	1454.749267578125	1325.876953125	878.6055297851562	1562.851196289062	1142.6064453125	892.1930541992188	1477.70458984375	1085.282592773438	877.40234375	1653.378295898438	1002.163391113281	1033.33642578125	1678.5322265625	973.5692138671875	969.9763793945312	1615.918334960938	1077.297241210938	924.1012573242188	1732.81787109375	863.9166259765625	1086.697631835938	1717.478393554688	909.5831909179688	1001.074279785156	1128.764770507812	1413.573486328125	1181.597900390625	1063.3662109375	1350.672973632812	1220.522094726562	1026.548217773438	1067.521240234375	1270.72021484375	1017.878051757812	1046.365234375	1206.349609375	1149.183837890625	878.6820068359375	1318.45947265625	1064.877319335938	855.8189697265625	1320.325439453125	1027.84912109375	1009.618225097656	1284.38720703125	1159.835205078125	719.2579345703125	1333.14599609375	1162.479125976562	781.3953857421875	1343.126953125	1087.461181640625	769.8452758789062	1333.806762695312	1187.417602539062	1634.441528320312	1153.018310546875	1391.6904296875	1660.0830078125	1131.803588867188	1302.798095703125	1652.436401367188	1226.6220703125	1296.295288085938	1649.738037109375	1013.663635253906	1391.255493164062	849.5624389648438	937.4049072265625	1119.754272460938	858.6031494140625	1228.852172851562	1233.111328125	908.698974609375	1238.97509765625	1410.864624023438	896.7428588867188	1057.7939453125	1404.4248046875	431.8970947265625	1020.12646484375	1421.827270507812	590.2442016601562	1004.098510742188	1330.631591796875	26.15686988830566	980.1810302734375	1398.91552734375	273.6540832519531	1012.445129394531	1446.181518554688	27.73496437072754	1186.896728515625	1373.737182617188	35.07192993164062	1154.274291992188	1451.258666992188	28.17076110839844	1069.932373046875	1259.013061523438	28.64469718933105	977.60546875	1227.698974609375	477.890625	1292.109985351562	1148.075073242188	731.9157104492188	1254.577392578125	1173.633056640625	51.84726333618164	1239.22802734375	1209.91455078125	331.9541625976562	1294.181518554688	1368.752075195312	56.83891296386719	1335.208862304688	1342.1923828125	57.48875427246094	1266.040405273438	1262.152465820312	48.05046081542969	1334.724731445312	1149.131225585938	49.73600387573242	1163.120971679688	1707.828002929688	937.33349609375	1065.718505859375	nan	nan	nan	
431	4.3	1117.911743164062	949.8338623046875	1038.812622070312	1212.870239257812	950.6893310546875	932.0328369140625	1168.463012695312	1052.42333984375	994.4308471679688	1368.446655273438	1253.36767578125	1167.606201171875	1161.241943359375	1174.618530273438	971.8436889648438	1193.164794921875	1445.096923828125	1022.453186035156	1338.271728515625	1366.265502929688	1141.467529296875	1087.710205078125	1321.192138671875	1045.093139648438	1242.21875	1399.809692382812	926.6174926757812	1366.504760742188	1427.473754882812	948.553955078125	1456.23876953125	1325.946411132812	880.3370971679688	1565.144409179688	1143.221435546875	894.781982421875	1480.277465820312	1085.39892578125	880.3343505859375	1656.332641601562	1004.32861328125	1036.994018554688	1681.697387695312	975.3916625976562	973.8759765625	1618.539672851562	1078.42431640625	927.1770629882812	1736.52099609375	866.9522094726562	1091.47607421875	1720.975952148438	911.8760986328125	1005.484313964844	1131.543090820312	1413.65234375	1184.577270507812	1066.437866210938	1350.7353515625	1224.007202148438	1030.457641601562	1067.677612304688	1275.167602539062	1021.537109375	1046.266967773438	1210.868896484375	1153.677734375	879.0681762695312	1322.77001953125	1069.396728515625	856.1323852539062	1325.095336914062	1031.932739257812	1009.80712890625	1288.999267578125	1165.04052734375	720.2893676757812	1338.190185546875	1167.239501953125	781.9119262695312	1347.507934570312	1092.224487304688	770.3867797851562	1338.79931640625	1190.013427734375	1634.5771484375	1155.579956054688	1394.323974609375	1659.895141601562	1134.253784179688	1305.439086914062	1652.20263671875	1229.026245117188	1298.809204101562	1649.819702148438	1016.254699707031	1393.0732421875	849.725830078125	939.6343994140625	1123.797485351562	858.4063110351562	1232.822631835938	1237.283813476562	908.2662963867188	1242.650634765625	1413.848266601562	896.6786499023438	1060.098388671875	1405.007934570312	431.7115478515625	1020.744323730469	1422.940551757812	589.95654296875	1005.064331054688	1330.541625976562	26.18354034423828	980.2753295898438	1399.167236328125	273.595458984375	1012.636169433594	1446.27001953125	27.71300315856934	1186.914306640625	1373.806884765625	35.13620376586914	1154.274291992188	1451.288452148438	28.0769214630127	1069.903564453125	1258.888305664062	28.70612335205078	977.7131958007812	1229.05078125	476.0951538085938	1291.925415039062	1151.985961914062	731.5952758789062	1258.195922851562	1177.847778320312	49.43399429321289	1245.117431640625	1212.32421875	330.3005981445312	1295.86083984375	1374.088745117188	56.16399765014648	1338.872192382812	1346.80224609375	56.38495635986328	1270.130981445312	1267.418090820312	47.54180526733398	1339.770385742188	1152.521728515625	46.01918792724609	1169.277465820312	1711.132446289062	940.0615844726562	1069.910278320312	nan	nan	nan	
432	4.31	1120.638549804688	950.1636962890625	1043.173950195312	1214.816650390625	951.0030517578125	935.7935180664062	1170.695190429688	1052.241088867188	998.3604125976562	1371.355590820312	1253.545532226562	1169.608642578125	1162.978515625	1174.291748046875	975.302978515625	1194.951416015625	1444.832641601562	1025.275146484375	1340.787109375	1366.336303710938	1143.487915039062	1089.695556640625	1320.859497070312	1048.616943359375	1243.44140625	1399.473266601562	929.2460327148438	1367.8662109375	1427.397583007812	950.3504638671875	1457.395385742188	1325.837890625	881.910888671875	1566.986938476562	1143.560546875	897.0701904296875	1482.345458984375	1085.33349609375	883.0026245117188	1658.781616210938	1006.19140625	1040.349487304688	1684.319213867188	976.8800659179688	977.4756469726562	1620.677490234375	1079.250732421875	929.9418334960938	1739.595092773438	869.6292724609375	1095.95654296875	1723.878540039062	913.8070068359375	1009.594116210938	1134.20849609375	1413.6142578125	1187.63623046875	1069.433837890625	1350.679931640625	1227.606323242188	1034.34375	1067.694946289062	1279.72265625	1025.052001953125	1046.076049804688	1215.524780273438	1158.14990234375	879.22021484375	1326.8828125	1073.892578125	856.3265991210938	1329.974853515625	1035.988159179688	1009.8720703125	1293.718139648438	1169.8974609375	720.8706665039062	1342.792236328125	1171.878051757812	782.049560546875	1351.548583984375	1096.89501953125	770.812744140625	1343.8681640625	1192.442260742188	1634.608276367188	1158.081665039062	1396.778442382812	1659.643676757812	1136.588012695312	1307.924682617188	1651.921997070312	1231.311401367188	1301.119506835938	1649.76123046875	1018.760192871094	1394.861572265625	849.85888671875	941.8565063476562	1127.661376953125	858.0418701171875	1236.598754882812	1241.275756835938	907.652099609375	1246.272094726562	1416.75830078125	896.5696411132812	1062.458740234375	1405.710083007812	431.4739685058594	1021.474243164062	1424.141723632812	589.6390380859375	1006.045227050781	1330.448974609375	26.19317054748535	980.3599243164062	1399.475708007812	273.4229125976562	1012.866394042969	1446.3408203125	27.69342803955078	1186.932373046875	1373.863525390625	35.19831466674805	1154.266357421875	1451.301879882812	28.0013484954834	1069.86474609375	1258.7783203125	28.77067184448242	977.7791137695312	1229.92529296875	474.2286682128906	1291.670776367188	1155.71630859375	731.0933227539062	1261.760375976562	1181.020874023438	47.23280334472656	1249.885864257812	1214.083740234375	328.6414794921875	1297.1572265625	1378.214111328125	54.74327850341797	1341.729736328125	1350.336059570312	54.87195205688477	1273.395629882812	1271.461059570312	46.71685409545898	1343.870727539062	1154.994750976562	42.84543991088867	1174.34228515625	1713.869506835938	942.4439086914062	1073.795288085938	nan	nan	nan	
433	4.32	1123.338256835938	950.3901977539062	1047.43310546875	1216.728881835938	951.2447509765625	939.497314453125	1172.841796875	1051.905883789062	1002.293090820312	1374.146240234375	1253.617309570312	1171.625	1164.543823242188	1173.817504882812	978.84375	1196.562255859375	1444.451171875	1028.14013671875	1343.170654296875	1366.296997070312	1145.505004882812	1091.524169921875	1320.40576171875	1052.250244140625	1244.451293945312	1399.012817382812	931.9063720703125	1369.0224609375	1427.175170898438	952.1131591796875	1458.24072265625	1325.548828125	883.3624877929688	1568.397094726562	1143.614135742188	899.0595703125	1483.920654296875	1085.073852539062	885.4154663085938	1660.739135742188	1007.734924316406	1043.402465820312	1686.413330078125	978.0178833007812	980.7750244140625	1622.34814453125	1079.763305664062	932.3964233398438	1742.051025390625	871.9295043945312	1100.142822265625	1726.20068359375	915.35791015625	1013.406433105469	1136.761474609375	1413.456787109375	1190.779541015625	1072.36767578125	1350.502075195312	1231.335083007812	1038.205322265625	1067.5712890625	1284.390502929688	1028.4013671875	1045.803955078125	1220.333374023438	1162.561767578125	879.1491088867188	1330.833374023438	1078.341552734375	856.3804931640625	1334.917724609375	1040.010498046875	1009.802307128906	1298.53857421875	1174.429931640625	721.02197265625	1346.9853515625	1176.384765625	781.850830078125	1355.319702148438	1101.451904296875	771.0733032226562	1348.92431640625	1194.716064453125	1634.529907226562	1160.523315429688	1399.058837890625	1659.3232421875	1138.816040039062	1310.262817382812	1651.599365234375	1233.493896484375	1303.243041992188	1649.5576171875	1021.154968261719	1396.633422851562	849.9619140625	944.0672607421875	1131.357177734375	857.5261840820312	1240.1884765625	1245.114501953125	906.8955078125	1249.8447265625	1419.596801757812	896.4169311523438	1064.845581054688	1406.533935546875	431.1875305175781	1022.319946289062	1425.428466796875	589.2949829101562	1007.052917480469	1330.352661132812	26.17696762084961	980.4254150390625	1399.83203125	273.1248474121094	1013.144409179688	1446.389526367188	27.67728042602539	1186.942993164062	1373.90478515625	35.25973510742188	1154.248657226562	1451.298217773438	27.94064712524414	1069.8173828125	1258.685913085938	28.84062767028809	977.79296875	1230.32275390625	472.2829895019531	1291.311889648438	1159.308349609375	730.4429931640625	1265.282958984375	1183.2431640625	45.16714859008789	1253.626220703125	1215.21630859375	326.9385681152344	1298.067749023438	1381.289916992188	52.59079360961914	1343.835571289062	1352.913696289062	52.97854995727539	1275.893676757812	1274.435180664062	45.53478622436523	1347.145629882812	1156.619506835938	40.11323165893555	1178.407836914062	1716.053588867188	944.4636840820312	1077.374389648438	nan	nan	nan	
